<?xml version="1.0" encoding="utf-8"?>
<!-- Generator: Adobe Illustrator 22.1.0, SVG Export Plug-In . SVG Version: 6.00 Build 0)  -->
<svg version="1.1" id="logo_1" xmlns="http://www.w3.org/2000/svg" xmlns:xlink="http://www.w3.org/1999/xlink" x="0px" y="0px"
	 viewBox="0 0 100 340.2" style="enable-background:new 0 0 100 340.2;" xml:space="preserve">
<style type="text/css">
	.st0{fill:#EC0000;}
</style>
<title>Artboard 1</title>
<polygon class="st0" points="0,320.2 30,290.2 0,260.2 20,240.2 50,270.2 80,240.2 100,260.2 70,290.2 100,320.2 80,340.2 50,310.2 
	20,340.2 "/>
<polygon class="st0" points="0,80 30,50 0,20 20,0 50,30 80,0 100,20 70,50 100,80 80,100 50,70 20,100 "/>
<polygon class="st0" points="0,200.2 30,170.2 0,140.2 20,120.2 50,150.2 80,120.2 100,140.2 70,170.2 100,200.2 80,220.2 50,190.2 
	20,220.2 "/>
</svg>
