<svg xmlns="http://www.w3.org/2000/svg" viewBox="0 0 590 275.33"><defs><style>.a{fill:#e6e6e6;}</style></defs><title>logo_white</title><path class="a" d="M547,131.9a48.32,48.32,0,0,0-38.17,18.69L298.46,58.78A48.47,48.47,0,1,0,208.58,75L81.85,189.34a48.61,48.61,0,1,0,14.45,16L223.15,90.92A48.36,48.36,0,0,0,290.34,78.8l209.3,91.33a49.08,49.08,0,0,0-1.13,10.36A48.5,48.5,0,1,0,547,131.9ZM54,258.77a29.69,29.69,0,1,1,29.64-29.69A29.66,29.66,0,0,1,54,258.77ZM250.66,80.61a29.69,29.69,0,1,1,29.63-29.69A29.65,29.65,0,0,1,250.66,80.61ZM547,210.18a29.69,29.69,0,1,1,29.63-29.69A29.66,29.66,0,0,1,547,210.18Z" transform="translate(-5.5 -2.33)"/></svg>